<?xml version="1.0" encoding="UTF-8" standalone="no"?>
<!-- Licensed under the terms of http://www.apache.org/licenses/LICENSE-2.0 -->
<svg enable-background="new 0 0 147.4 25.5" version="1.1" viewBox="0 0 147.4 25.5" xml:space="preserve" xmlns="http://www.w3.org/2000/svg">
<style type="text/css">
	.st0{fill:#005D83;}
</style>

	<polygon class="st0" points="101.4 0.1 95.9 0.1 88.9 12.5 81.8 0.1 76.3 0.1 86.6 18.1 86.6 25.6 91.2 25.6 91.2 17.9"/>
	
		<path class="st0" d="m142.8 0.1v15.6c0 2.1-1.1 4-3 4.9-4.5 2.2-8.8-1-8.8-5.2v-15.2h-4.6v15c0 7.1 7.2 12.6 14.7 9.6 3.8-1.5 6.3-5.3 6.3-9.4v-15.3h-4.6z"/>
		<path class="st0" d="M42.8,21c-4.5,0-8.2-3.7-8.2-8.2s3.7-8.5,8.2-8.5c2,0,3.9,0.8,5.4,2.1l2.3-3.8C48.4,1,45.7,0,42.8,0    C35.7,0,30,5.7,30,12.8s5.7,12.8,12.8,12.8c3.2,0,6.2-1.2,8.4-3.2l-2.5-3.9C47.3,20.1,45.2,21,42.8,21"/>
		<path class="st0" d="m64.7 21c-4.5 0-8.2-3.7-8.2-8.2s3.7-8.5 8.2-8.5 8.2 3.9 8.2 8.5-3.6 8.2-8.2 8.2m0-20.9c-7.1 0-12.8 5.7-12.8 12.8 0 7 5.7 12.8 12.8 12.8 7 0 12.8-5.7 12.8-12.8s-5.7-12.8-12.8-12.8"/>
		<path class="st0" d="m115.1 11.9h-6v-7.6h6c2.1 0 3.8 1.7 3.8 3.8s-1.7 3.8-3.8 3.8m8.1-3.8c0-4.5-3.6-8.1-8.1-8.1h-10.6v25.6h4.6v-9.4h6.2c4.4-0.1 7.9-3.7 7.9-8.1"/>
		<path class="st0" d="m15.3 17.5-3.3 0.8v-14.2l4.9 0.9-1.6 12.5zm-5.6 0.9-3.3-0.8-1.6-12.5 4.9-0.9v14.2zm1.2-18.4c-5.9 0-10.9 2.3-10.9 2.3l2.9 18.5 8 4.7s2.6-1.5 4.4-2.6 3.6-2.1 3.6-2.1l2.9-18.4s-5-2.4-10.9-2.4"/>
	

</svg>
